<?xml version="1.0" encoding="UTF-8" standalone="no"?>
<!DOCTYPE svg PUBLIC "-//W3C//DTD SVG 1.1//EN" "http://www.w3.org/Graphics/SVG/1.1/DTD/svg11.dtd">
<svg width="100%" height="100%" viewBox="0 0 794 837" version="1.1" xmlns="http://www.w3.org/2000/svg" xmlns:xlink="http://www.w3.org/1999/xlink" xml:space="preserve" xmlns:serif="http://www.serif.com/" style="fill-rule:evenodd;clip-rule:evenodd;stroke-linejoin:round;stroke-miterlimit:2;">
    <g id="Body">
    </g>
    <g id="Face">
        <g id="Eyebrow_right" transform="matrix(0.1,0,0,-0.1,-125.617,935)">
            <path d="M5224,7889C5241,7896 5272.04,7882.01 5322.33,7859.61C5386.98,7830.82 5423,7808 5464,7759C5495,7722 5497,7699 5470,7675C5455,7662 5441,7659 5414,7663C5335,7676 5190,7772 5177,7819C5171,7843 5195,7879 5224,7889Z"/>
        </g>
        <g id="Eye_right" transform="matrix(0.1,0,0,-0.1,-125.617,935)">
            <path d="M5279,7198C5261.91,7196.91 5230.13,7194.03 5208,7208C5183.82,7223.27 5185,7262 5208,7282C5231,7303 5268,7314 5460,7355C5639,7393 5661,7395 5691,7380C5719,7364 5716,7316 5685,7296C5659,7279 5419,7217 5332,7205C5332,7205 5296.09,7199.09 5279,7198Z"/>
        </g>
        <g transform="matrix(0.1,0,0,-0.1,-125.617,935)">
            <path d="M4024,7662C3970,7623 3903,7545 3874,7488C3820,7382 3861,7321 3956,7366C4071,7421 4172,7619 4112,7673C4086,7697 4069,7694 4024,7662Z" style="fill-rule:nonzero;"/>
        </g>
        <g transform="matrix(0.1,0,0,-0.1,-125.617,935)">
            <path d="M4440,7019C4183,6922 3960,6782 3960,6719C3960,6708 3971,6689 3985,6676C4003,6659 3998.81,6635.6 4049.81,6635.6C4097.81,6635.6 4119.71,6658.43 4159.71,6697.43C4208.71,6745.43 4284,6776 4336,6805C4441,6864 4607,6978 4614,6996C4623,7020 4594,7060 4567,7060C4555,7060 4498,7041 4440,7019Z" style="fill-rule:nonzero;"/>
        </g>
    </g>
</svg>
